{
	"asset":{
		"generator":"Khronos glTF Blender I/O v3.5.30",
		"version":"2.0"
	},
	"scene":0,
	"scenes":[
		{
			"name":"Scene",
			"nodes":[
				0
			]
		}
	],
	"nodes":[
		{
			"mesh":0,
			"name":"Cube"
		}
	],
	"materials":[
		{
			"doubleSided":true,
			"name":"Material.001",
			"pbrMetallicRoughness":{
				"baseColorFactor":[
					0.006566809490323067,
					0.01166041661053896,
					0.8000000715255737,
					1
				],
				"metallicFactor":0,
				"roughnessFactor":0.5
			}
		},
		{
			"doubleSided":true,
			"name":"Material.002",
			"pbrMetallicRoughness":{
				"baseColorFactor":[
					0.2792820930480957,
					0.01560895424336195,
					0.8000000715255737,
					1
				],
				"metallicFactor":0,
				"roughnessFactor":0.5
			}
		},
		{
			"doubleSided":true,
			"name":"Material.003",
			"pbrMetallicRoughness":{
				"baseColorFactor":[
					0.8000000715255737,
					0.009460384957492352,
					0.013301201164722443,
					1
				],
				"metallicFactor":0,
				"roughnessFactor":0.5
			}
		},
		{
			"doubleSided":true,
			"name":"Material.004",
			"pbrMetallicRoughness":{
				"baseColorFactor":[
					0.800000011920929,
					0.800000011920929,
					0.800000011920929,
					1
				],
				"metallicFactor":0,
				"roughnessFactor":0.5
			}
		},
		{
			"doubleSided":true,
			"name":"Material.005",
			"pbrMetallicRoughness":{
				"baseColorFactor":[
					0.8000000715255737,
					0.6421557068824768,
					0.011840088292956352,
					1
				],
				"metallicFactor":0,
				"roughnessFactor":0.5
			}
		}
	],
	"meshes":[
		{
			"name":"Cube.001",
			"primitives":[
				{
					"attributes":{
						"POSITION":0,
						"TEXCOORD_0":1,
						"NORMAL":2
					},
					"indices":3,
					"material":0
				},
				{
					"attributes":{
						"POSITION":4,
						"TEXCOORD_0":5,
						"NORMAL":6
					},
					"indices":7,
					"material":1
				},
				{
					"attributes":{
						"POSITION":8,
						"TEXCOORD_0":9,
						"NORMAL":10
					},
					"indices":11,
					"material":2
				},
				{
					"attributes":{
						"POSITION":12,
						"TEXCOORD_0":13,
						"NORMAL":14
					},
					"indices":11,
					"material":3
				},
				{
					"attributes":{
						"POSITION":15,
						"TEXCOORD_0":16,
						"NORMAL":17
					},
					"indices":7,
					"material":4
				}
			]
		}
	],
	"accessors":[
		{
			"bufferView":0,
			"componentType":5126,
			"count":8,
			"max":[
				1,
				1,
				1
			],
			"min":[
				-1,
				-1,
				-1
			],
			"type":"VEC3"
		},
		{
			"bufferView":1,
			"componentType":5126,
			"count":8,
			"type":"VEC2"
		},
		{
			"bufferView":2,
			"componentType":5126,
			"count":8,
			"type":"VEC3"
		},
		{
			"bufferView":3,
			"componentType":5123,
			"count":12,
			"type":"SCALAR"
		},
		{
			"bufferView":4,
			"componentType":5126,
			"count":4,
			"max":[
				1,
				1,
				1
			],
			"min":[
				-1,
				-1,
				1
			],
			"type":"VEC3"
		},
		{
			"bufferView":5,
			"componentType":5126,
			"count":4,
			"type":"VEC2"
		},
		{
			"bufferView":6,
			"componentType":5126,
			"count":4,
			"type":"VEC3"
		},
		{
			"bufferView":7,
			"componentType":5123,
			"count":6,
			"type":"SCALAR"
		},
		{
			"bufferView":8,
			"componentType":5126,
			"count":4,
			"max":[
				-1,
				1,
				1
			],
			"min":[
				-1,
				-1,
				-1
			],
			"type":"VEC3"
		},
		{
			"bufferView":9,
			"componentType":5126,
			"count":4,
			"type":"VEC2"
		},
		{
			"bufferView":10,
			"componentType":5126,
			"count":4,
			"type":"VEC3"
		},
		{
			"bufferView":11,
			"componentType":5123,
			"count":6,
			"type":"SCALAR"
		},
		{
			"bufferView":12,
			"componentType":5126,
			"count":4,
			"max":[
				1,
				1,
				-1
			],
			"min":[
				-1,
				-1,
				-1
			],
			"type":"VEC3"
		},
		{
			"bufferView":13,
			"componentType":5126,
			"count":4,
			"type":"VEC2"
		},
		{
			"bufferView":14,
			"componentType":5126,
			"count":4,
			"type":"VEC3"
		},
		{
			"bufferView":15,
			"componentType":5126,
			"count":4,
			"max":[
				1,
				1,
				1
			],
			"min":[
				1,
				-1,
				-1
			],
			"type":"VEC3"
		},
		{
			"bufferView":16,
			"componentType":5126,
			"count":4,
			"type":"VEC2"
		},
		{
			"bufferView":17,
			"componentType":5126,
			"count":4,
			"type":"VEC3"
		}
	],
	"bufferViews":[
		{
			"buffer":0,
			"byteLength":96,
			"byteOffset":0,
			"target":34962
		},
		{
			"buffer":0,
			"byteLength":64,
			"byteOffset":96,
			"target":34962
		},
		{
			"buffer":0,
			"byteLength":96,
			"byteOffset":160,
			"target":34962
		},
		{
			"buffer":0,
			"byteLength":24,
			"byteOffset":256,
			"target":34963
		},
		{
			"buffer":0,
			"byteLength":48,
			"byteOffset":280,
			"target":34962
		},
		{
			"buffer":0,
			"byteLength":32,
			"byteOffset":328,
			"target":34962
		},
		{
			"buffer":0,
			"byteLength":48,
			"byteOffset":360,
			"target":34962
		},
		{
			"buffer":0,
			"byteLength":12,
			"byteOffset":408,
			"target":34963
		},
		{
			"buffer":0,
			"byteLength":48,
			"byteOffset":420,
			"target":34962
		},
		{
			"buffer":0,
			"byteLength":32,
			"byteOffset":468,
			"target":34962
		},
		{
			"buffer":0,
			"byteLength":48,
			"byteOffset":500,
			"target":34962
		},
		{
			"buffer":0,
			"byteLength":12,
			"byteOffset":548,
			"target":34963
		},
		{
			"buffer":0,
			"byteLength":48,
			"byteOffset":560,
			"target":34962
		},
		{
			"buffer":0,
			"byteLength":32,
			"byteOffset":608,
			"target":34962
		},
		{
			"buffer":0,
			"byteLength":48,
			"byteOffset":640,
			"target":34962
		},
		{
			"buffer":0,
			"byteLength":48,
			"byteOffset":688,
			"target":34962
		},
		{
			"buffer":0,
			"byteLength":32,
			"byteOffset":736,
			"target":34962
		},
		{
			"buffer":0,
			"byteLength":48,
			"byteOffset":768,
			"target":34962
		}
	],
	"buffers":[
		{
			"byteLength":816,
			"uri":"data:application/octet-stream;base64,"
		}
	]
}
